<?xml version="1.0" standalone="no"?>
<!DOCTYPE svg PUBLIC "-//W3C//DTD SVG 20010904//EN"
 "http://www.w3.org/TR/2001/REC-SVG-20010904/DTD/svg10.dtd">
<svg version="1.0" xmlns="http://www.w3.org/2000/svg"
 width="200.000000pt" height="200.000000pt" viewBox="0 0 200.000000 200.000000"
 preserveAspectRatio="xMidYMid meet">

<g transform="translate(0.000000,200.000000) scale(0.100000,-0.100000)"
fill="#000000" stroke="none">
<path d="M785 1873 c-394 -83 -675 -431 -675 -833 0 -348 216 -668 535 -791
128 -50 202 -62 350 -56 111 4 144 9 225 35 138 45 238 108 345 216 156 158
233 333 243 551 3 73 0 148 -7 189 -60 345 -336 626 -679 692 -94 18 -247 17
-337 -3z m-168 -574 c32 -20 36 -21 71 -6 70 30 80 30 107 3 l25 -25 57 26
c51 24 59 25 82 12 46 -26 40 -65 -44 -278 -73 -184 -76 -193 -60 -212 15 -16
16 -23 5 -49 -16 -38 -38 -38 -75 0 -43 45 -38 80 39 268 36 90 66 170 66 178
0 21 -21 17 -60 -10 -30 -21 -43 -44 -95 -176 -32 -84 -65 -154 -71 -157 -7
-2 -28 -3 -47 -1 l-35 3 64 160 c81 202 82 224 8 173 -27 -19 -42 -47 -94
-179 l-63 -157 -44 -4 c-24 -2 -46 -2 -47 0 -2 1 29 84 70 182 40 99 72 180
70 180 -13 0 -125 -43 -143 -55 -29 -19 -31 -61 -3 -70 15 -5 20 -15 20 -41 0
-31 -2 -34 -31 -34 -44 0 -89 47 -89 95 0 77 41 113 193 165 45 16 84 29 86
29 2 1 19 -9 38 -20z m588 -144 c26 -26 31 -57 15 -99 -8 -23 -15 -26 -54 -26
l-44 0 11 35 c6 19 8 38 5 41 -12 12 -49 -18 -68 -56 -47 -93 -18 -144 68
-121 61 17 111 71 145 158 16 40 33 75 37 78 5 3 24 -1 42 -8 29 -12 36 -11
65 5 20 12 46 18 70 16 59 -5 64 -36 24 -141 -18 -47 -31 -93 -29 -102 3 -16
7 -15 35 9 18 15 41 42 53 61 13 22 26 32 36 28 23 -9 16 -37 -21 -87 -43 -55
-80 -76 -134 -76 -67 0 -78 45 -36 157 29 77 22 100 -22 67 -32 -25 -34 -28
-79 -136 l-36 -88 -45 0 c-39 0 -44 2 -38 19 6 19 5 19 -32 0 -68 -35 -189
-19 -207 26 -11 30 -6 105 9 143 45 106 169 159 230 97z"/>
</g>
</svg>
